# xmcd
#
# Track frame offsets:
#	150
#	13517
#	28198
#	41003
#	56926
#	73704
#	85773
#	98502
#	110422
#	123841
#	136272
#	149023
#	159718
#	173759
#	186346
#	201831
#	215685
#	232667
#	242870
#	256365
#	273615
#	286929
#	296490
#	306879
#
# Disc length: 4281 seconds
#
# Revision: 1
# Processed by: cddbd v1.4PL0 Copyright (c) Steve Scherf et al.
# Submitted via: audiograbber 1.81.02
#
DISCID=6910b718
DTITLE=Percy Sledge - 24 Greatest Hits
DYEAR=1997
DGENRE=Pop
TTITLE0=When A Man Loves A Woman
TTITLE1=Take Time to Know Her
TTITLE2=Cover Me
TTITLE3=Just Out Of Reach
TTITLE4=A Whiter Shade of Pale
TTITLE5=The Dark End Of the Street
TTITLE6=You're All Around Me
TTITLE7=Today I Started loving You Again
TTITLE8=She Thinks I Still Care
TTITLE9=He'll Have To Go
TTITLE10=You're Gonna' Love Yourself In The Morning
TTITLE11=Hey Good Looking
TTITLE12=Warm And Tender Love
TTITLE13=It Tears Me Up
TTITLE14=Out Of Left Field
TTITLE15=My Special Prayer
TTITLE16=Dock Of The Bay
TTITLE17=Kiss An Angel Good Morning
TTITLE18=I Still Miss Someone
TTITLE19=For The Good Times
TTITLE20=Personality
TTITLE21=If You Got The Money
TTITLE22=Wabash Cannonball
TTITLE23=Why Me Lord
EXTD=
EXTT0=
EXTT1=
EXTT2=
EXTT3=
EXTT4=
EXTT5=
EXTT6=
EXTT7=
EXTT8=
EXTT9=
EXTT10=
EXTT11=
EXTT12=
EXTT13=
EXTT14=
EXTT15=
EXTT16=
EXTT17=
EXTT18=
EXTT19=
EXTT20=
EXTT21=
EXTT22=
EXTT23=
PLAYORDER=
